# xmcd
# 
# Track frame offsets:
#     150
#     3175
#     24212
#     41882
#     52135
#     75605
#     90962
#     105737
#     123195
#     140502
#     153447
#     174982
#     201867
#     217700
#     232782
#     250900
#     266372
#     278820
#     292565
#     303930
#     327802
# 
# Disc length: 4644
# 
# Revision: 14
# Processed by: cddbd v1.5.2PL0 Copyright (c) Steve Scherf et al.
# Submitted via: fre:ac v1.1beta1pre4
# 
DISCID=03122215
DTITLE=Various Artist - Chef Aid: The South Park Album
DYEAR=1998
DGENRE=Comedy
TTITLE0=South Park Theme
TTITLE1=Nowhere To Run
TTITLE2=Chocolate Salty Balls (P.S. I Love You)
TTITLE3=Brad Logan ft. Rancid
TTITLE4=Come Sail Away ft. Eric Cartman
TTITLE5=Kenny's Dead ft. Master P
TTITLE6=Simultaneous ft. Chef
TTITLE7=Will They Die 4 You? ft. Mase, Puffy, Lil' Kim, and System Of A Down
TTITLE8=Hot Lava ft. Perry Farrell and D.V.D.A.
TTITLE9=Bubblegoose ft. Wyclef Jean feat. Stan, Kyle, Cartman and Kenny
TTITLE10=No Substitute ft. Chef
TTITLE11=Wake up Wendy ft. Elton John
TTITLE12=Horny ft. Mousse T. Vs Hot 'N' Juicy
TTITLE13=Huboon Stomp ft. Devo
TTITLE14=Love Gravy ft. Rick James and Ike Turner
TTITLE15=Feel Like Makin' Love ft. Ned Gerblansky
TTITLE16=The Rainbow ft. Ween
TTITLE17=Tonight Is Right For Love ft. Chef and Meat Loaf
TTITLE18=It's a Rockin' World ft. Joe Strummer
TTITLE19=Mephisto And Kevin ft. Primus
TTITLE20=Mentally Dull (Think Tank Remix) ft. Vitro and The Cast Of South Park
EXTD=
EXTT0=
EXTT1=
EXTT2=
EXTT3=
EXTT4=
EXTT5=
EXTT6=
EXTT7=
EXTT8=
EXTT9=
EXTT10=
EXTT11=
EXTT12=
EXTT13=
EXTT14=
EXTT15=
EXTT16=
EXTT17=
EXTT18=
EXTT19=
EXTT20=
PLAYORDER=
